IKResults
version=1
nRows=4
nColumns=63
inDegrees=yes

Units are S.I. units (second, meters, Newtons, ...)
If the header above contains a line with 'inDegrees', this indicates whether rotational values are in degrees (yes) or radians (no).

endheader
time	pelvis_tilt	pelvis_list	pelvis_rotation	pelvis_tx	pelvis_ty	pelvis_tz	hip_flexion_r	hip_adduction_r	hip_rotation_r	knee_angle_r	knee_angle_r_beta	ankle_angle_r	subtalar_angle_r	mtp_angle_r	hip_flexion_l	hip_adduction_l	hip_rotation_l	knee_angle_l	knee_angle_l_beta	ankle_angle_l	subtalar_angle_l	mtp_angle_l	L5_S1_Flex_Ext	L5_S1_Lat_Bending	L5_S1_axial_rotation	L4_L5_Flex_Ext	L4_L5_Lat_Bending	L4_L5_axial_rotation	L3_L4_Flex_Ext	L3_L4_Lat_Bending	L3_L4_axial_rotation	L2_L3_Flex_Ext	L2_L3_Lat_Bending	L2_L3_axial_rotation	L1_L2_Flex_Ext	L1_L2_Lat_Bending	L1_L2_axial_rotation	L1_T12_Flex_Ext	L1_T12_Lat_Bending	L1_T12_axial_rotation	Abs_r3	Abs_r2	Abs_r1	Abs_t1	Abs_t2	neck_flexion	neck_bending	neck_rotation	arm_flex_r	arm_add_r	arm_rot_r	elbow_flex_r	pro_sup_r	wrist_flex_r	wrist_dev_r	arm_flex_l	arm_add_l	arm_rot_l	elbow_flex_l	pro_sup_l	wrist_flex_l	wrist_dev_l
      4.03333333	   -271.67499625	    -51.37887010	      4.82777637	     -0.23878240	      0.17350863	     -0.92077157	      8.22838757	    -12.25907173	    -16.45040317	     15.48363879	      0.27024048	      0.00000000	      0.00000000	      0.00000000	     13.12110571	    -25.03836215	    -38.35897443	     23.33160610	      0.40721335	      0.00000000	      0.00000000	      0.00000000	     -0.07679933	      0.76200061	      2.27658046	     -0.14262403	      1.01346081	      2.41886673	     -0.12617362	      1.85272827	      2.41886673	     -0.08777395	      1.85272827	      1.99200790	     -0.07131586	      1.55387164	      1.84972162	     -0.04388314	      1.18033894	      1.70743534	     -0.54856993	      8.61990326	     12.66165752	      0.00000000	      0.00000000	     -1.05005054	      8.83821510	    -14.13787311	   -101.76261691	    -53.94588144	   -110.40463087	     45.97820313	     89.99559364	      0.00000000	      0.00000000	     34.18492273	    -73.89170518	     21.83021817	     23.64518973	     89.99559364	      0.00000000	      0.00000000
      4.06666667	   -271.58201387	    -51.27202627	      5.12776579	     -0.23851228	      0.17324170	     -0.92104232	      8.08258936	    -12.48716979	    -16.72476785	     15.59205467	      0.27213269	      0.00000000	      0.00000000	      0.00000000	     13.13878893	    -24.86362964	    -38.27085281	     23.32357224	      0.40707313	      0.00000000	      0.00000000	      0.00000000	     -0.09025403	      0.75420139	      2.22158832	     -0.16761076	      1.00308785	      2.36043759	     -0.14827834	      1.83376527	      2.36043759	     -0.10315133	      1.83376527	      1.94388978	     -0.08380989	      1.53796748	      1.80504051	     -0.05157115	      1.16825796	      1.66619124	     -0.64467550	      8.53167702	     12.35580778	      0.00000000	      0.00000000	     -1.02652242	      9.00266367	    -13.86361746	   -103.01357183	    -53.59771130	   -109.40108546	     46.72956928	     89.99559364	      0.00000000	      0.00000000	     33.99159924	    -74.10038729	     21.83473235	     23.93959839	     89.99559364	      0.00000000	      0.00000000
      4.10000000	   -271.33926212	    -51.25937620	      5.46131475	     -0.23821694	      0.17276174	     -0.92138438	      7.85228161	    -12.65023829	    -17.31147010	     15.67034539	      0.27349912	      0.00000000	      0.00000000	      0.00000000	     13.07490285	    -24.82688720	    -38.16000161	     23.38700989	      0.40818032	      0.00000000	      0.00000000	      0.00000000	     -0.11973965	      0.76625816	      2.17691557	     -0.22236851	      1.01912335	      2.31297279	     -0.19672028	      1.86308008	      2.31297279	     -0.13685045	      1.86308008	      1.90480112	     -0.11119024	      1.56255363	      1.76874390	     -0.06841924	      1.18693388	      1.63268668	     -0.85528837	      8.66806551	     12.10735133	      0.00000000	      0.00000000	     -1.04720723	      8.94656591	    -13.32978240	   -105.32084476	    -53.24577814	   -108.01747763	     47.46134384	     89.99559364	      0.00000000	      0.00000000	     33.58498921	    -74.20490791	     21.97287321	     24.27280580	     89.99559364	      0.00000000	      0.00000000
      4.13333333	   -270.99396658	    -51.33546851	      5.89207421	     -0.23786365	      0.17221163	     -0.92184435	      7.55365673	    -12.72860605	    -18.18335721	     15.73757844	      0.27467256	      0.00000000	      0.00000000	      0.00000000	     12.99736436	    -24.91973615	    -38.05325836	     23.54209195	      0.41088702	      0.00000000	      0.00000000	      0.00000000	     -0.15668170	      0.79149342	      2.09651318	     -0.29097358	      1.05268625	      2.22754525	     -0.25741236	      1.92443710	      2.22754525	     -0.17907151	      1.92443710	      1.83444903	     -0.14549463	      1.61401338	      1.70341696	     -0.08952792	      1.22602331	      1.57238488	     -1.11916171	      8.95353188	     11.66017735	      0.00000000	      0.00000000	     -1.25854269	      8.76501558	    -12.72494043	   -107.77916741	    -53.26501532	   -107.11441338	     47.87663852	     89.99559364	      0.00000000	      0.00000000	     32.64065898	    -74.39833184	     22.31270472	     24.38186032	     89.99559364	      0.00000000	      0.00000000
